<svg width="1280" height="580" viewBox="0 0 1280 580" fill="none" xmlns="http://www.w3.org/2000/svg">
<path d="M-415.584 171.914C-367.502 155.654 -256.414 127.243 -196.71 143.678C-122.081 164.222 -111.004 270.052 -16.7741 300.413C77.4554 330.775 233.307 323.267 251.875 274.207C270.443 225.147 230.917 193.216 193.702 193.126C156.487 193.036 117.229 229.072 139.135 279.556C161.042 330.04 246.188 432.07 407.417 437.091C568.646 442.112 573.552 363.845 707.476 421.005C841.4 478.164 933.62 579.186 991.895 484.98C1050.17 390.774 1204.75 384.948 1272.3 404.839C1356.75 429.703 1455.95 478.802 1493.06 352.448" stroke="#667FF5" stroke-width="2"/>
<path d="M1038.67 214.667L1045.31 241.353L1072 248L1045.31 254.647L1038.67 281.333L1032.02 254.647L1005.33 248L1032.02 241.353L1038.67 214.667Z" fill="#F5422B"/>
<path d="M341.93 85.2634L339.957 104.413L355.945 115.138L336.795 113.165L326.07 129.152L328.043 110.002L312.056 99.2778L331.206 101.251L341.93 85.2634Z" fill="#F5422B"/>
</svg>
