<svg width="141" height="35" viewBox="0 0 141 35" fill="none" xmlns="http://www.w3.org/2000/svg">
<path d="M4.95833 13.521V9.17054L9.02083 1.74289L12.0417 2.27343V1.00012L14.0208 1.74289L17.1458 1.31845L18.1875 2.27343L19.6458 2.59176L21.1042 2.91009L21.5208 4.1834L22.331 5.24449L25.1667 4.1834L27.6667 7.04835L29.9583 9.17054L31.2083 12.1416H35.4792L37.6667 13.9455L37.1458 16.0676V19.0387L35.4792 24.3442L34.4375 29.3313L32.9792 29.6496L31 28.4824L30.2708 31.7718L24.75 34.0001H21.5208L20.8958 33.4696L16.4167 33.0451L16.1042 31.2413H14.2292L9.4375 29.6496H7.97917L5.89583 29.3313L5.375 28.058L2.45833 25.9358L1 23.0709L1.3125 20.4181L1.9375 18.7204L4.95833 13.521Z" fill="white"/>
<path d="M4.95833 13.521V9.17054L9.02083 1.74289L12.0417 2.27343V1.00012L14.0208 1.74289M4.95833 13.521L5.89583 10.1255L7.97917 9.17054L10.1667 10.1255L12.7708 9.91331M4.95833 13.521L1.9375 18.7204L1.3125 20.4181L1 23.0709L2.45833 25.9358L5.375 28.058L5.89583 29.3313L7.97917 29.6496H9.4375L14.2292 31.2413M14.0208 1.74289L14.8542 2.91009L12.0417 7.04835L12.7708 9.91331M14.0208 1.74289L17.1458 1.31845L18.1875 2.27343L19.6458 2.59176M12.7708 9.91331L14.8542 9.48887L19.6458 2.59176M26.9375 13.9455L28.2917 12.1416L27.3542 11.7172L26.4167 8.21556H25.1667V7.04835H23.7083L22.331 5.2445M26.9375 13.9455L28.2917 14.476L28.9167 12.566L31.2083 12.1416M26.9375 13.9455L24.75 13.521L19.3333 13.2027M26.9375 13.9455L22.6667 17.0226M31.2083 12.1416L29.9583 9.17054L27.6667 7.04835L25.1667 4.1834L22.331 5.2445M31.2083 12.1416H35.4792L37.6667 13.9455L37.1458 16.0676V19.0387M22.331 5.2445L21.5208 4.1834L21.1042 2.91009L19.6458 2.59176M37.1458 19.0387L34.4375 21.4792L31 28.4824M37.1458 19.0387L35.4792 24.3442L34.4375 29.3313L32.9792 29.6496L31 28.4824M31 28.4824L30.2708 31.7718L24.75 34.0001M24.75 34.0001L25.1667 25.9358L27.6667 23.4953L27.9792 22.0098L26.7292 19.357M24.75 34.0001H21.5208L20.8958 33.4696L16.4167 33.0451L16.1042 31.2413M26.7292 19.357H23.0833L18.9167 18.1898L9.85417 17.4471M26.7292 19.357L24.75 17.4471L26.9375 16.0676L27.3542 17.0226L29.2292 18.1898L28.6042 21.0548L29.2292 24.8747L30.2708 26.5725M9.85417 17.4471L9.4375 19.0387L8.60417 21.0548L7.5625 23.4953L10.1667 27.4213H11.7292L14.2292 31.2413M9.85417 17.4471L9.125 14.7943L12.0417 12.1416L14.5417 13.2027M14.2292 31.2413H16.1042M16.1042 31.2413L16.3125 26.2541L17.0417 25.9358V22.8586L18.3958 25.9358M19.3333 13.2027V11.2927M19.3333 13.2027L16.8333 15.3249L18.2917 16.2799H19.3333L20.2708 17.4471" stroke="black" stroke-width="0.333333" stroke-linecap="round" stroke-linejoin="round"/>
<path d="M45.736 26.0001V9.20012H47.512V26.0001H45.736ZM59.0502 13.2801C60.0742 13.2801 60.9702 13.4801 61.7382 13.8801C62.5222 14.2641 63.1302 14.8561 63.5622 15.6561C64.0102 16.4561 64.2342 17.4641 64.2342 18.6801V26.0001H62.5302V18.8481C62.5302 17.5201 62.1942 16.5201 61.5222 15.8481C60.8662 15.1601 59.9382 14.8161 58.7382 14.8161C57.8422 14.8161 57.0582 15.0001 56.3862 15.3681C55.7302 15.7201 55.2182 16.2401 54.8502 16.9281C54.4982 17.6001 54.3222 18.4161 54.3222 19.3761V26.0001H52.6182V13.4001H54.2502V16.8561L53.9862 16.2081C54.3862 15.2961 55.0262 14.5841 55.9062 14.0721C56.7862 13.5441 57.8342 13.2801 59.0502 13.2801ZM72.2209 26.1201C71.1809 26.1201 70.1969 25.9761 69.2689 25.6881C68.3409 25.3841 67.6129 25.0081 67.0849 24.5601L67.8529 23.2161C68.3649 23.6001 69.0209 23.9361 69.8209 24.2241C70.6209 24.4961 71.4609 24.6321 72.3409 24.6321C73.5409 24.6321 74.4049 24.4481 74.9329 24.0801C75.4609 23.6961 75.7249 23.1921 75.7249 22.5681C75.7249 22.1041 75.5729 21.7441 75.2689 21.4881C74.9809 21.2161 74.5969 21.0161 74.1169 20.8881C73.6369 20.7441 73.1009 20.6241 72.5089 20.5281C71.9169 20.4321 71.3249 20.3201 70.7329 20.1921C70.1569 20.0641 69.6289 19.8801 69.1489 19.6401C68.6689 19.3841 68.2769 19.0401 67.9729 18.6081C67.6849 18.1761 67.5409 17.6001 67.5409 16.8801C67.5409 16.1921 67.7329 15.5761 68.1169 15.0321C68.5009 14.4881 69.0609 14.0641 69.7969 13.7601C70.5489 13.4401 71.4609 13.2801 72.5329 13.2801C73.3489 13.2801 74.1649 13.3921 74.9809 13.6161C75.7969 13.8241 76.4689 14.1041 76.9969 14.4561L76.2529 15.8241C75.6929 15.4401 75.0929 15.1681 74.4529 15.0081C73.8129 14.8321 73.1729 14.7441 72.5329 14.7441C71.3969 14.7441 70.5569 14.9441 70.0129 15.3441C69.4849 15.7281 69.2209 16.2241 69.2209 16.8321C69.2209 17.3121 69.3649 17.6881 69.6529 17.9601C69.9569 18.2321 70.3489 18.4481 70.8289 18.6081C71.3249 18.7521 71.8609 18.8721 72.4369 18.9681C73.0289 19.0641 73.6129 19.1841 74.1889 19.3281C74.7809 19.4561 75.3169 19.6401 75.7969 19.8801C76.2929 20.1041 76.6849 20.4321 76.9729 20.8641C77.2769 21.2801 77.4289 21.8321 77.4289 22.5201C77.4289 23.2561 77.2209 23.8961 76.8049 24.4401C76.4049 24.9681 75.8129 25.3841 75.0289 25.6881C74.2609 25.9761 73.3249 26.1201 72.2209 26.1201ZM87.0597 26.1201C85.9717 26.1201 84.9877 25.8721 84.1077 25.3761C83.2277 24.8641 82.5237 24.1361 81.9957 23.1921C81.4837 22.2321 81.2277 21.0641 81.2277 19.6881C81.2277 18.3121 81.4837 17.1521 81.9957 16.2081C82.5077 15.2481 83.2037 14.5201 84.0837 14.0241C84.9637 13.5281 85.9557 13.2801 87.0597 13.2801C88.2597 13.2801 89.3317 13.5521 90.2757 14.0961C91.2357 14.6241 91.9877 15.3761 92.5317 16.3521C93.0757 17.3121 93.3477 18.4241 93.3477 19.6881C93.3477 20.9681 93.0757 22.0881 92.5317 23.0481C91.9877 24.0081 91.2357 24.7601 90.2757 25.3041C89.3317 25.8481 88.2597 26.1201 87.0597 26.1201ZM80.5557 30.6561V13.4001H82.1877V17.1921L82.0197 19.7121L82.2597 22.2561V30.6561H80.5557ZM86.9397 24.6081C87.8357 24.6081 88.6357 24.4081 89.3397 24.0081C90.0437 23.5921 90.6037 23.0161 91.0197 22.2801C91.4357 21.5281 91.6437 20.6641 91.6437 19.6881C91.6437 18.7121 91.4357 17.8561 91.0197 17.1201C90.6037 16.3841 90.0437 15.8081 89.3397 15.3921C88.6357 14.9761 87.8357 14.7681 86.9397 14.7681C86.0437 14.7681 85.2357 14.9761 84.5157 15.3921C83.8117 15.8081 83.2517 16.3841 82.8357 17.1201C82.4357 17.8561 82.2357 18.7121 82.2357 19.6881C82.2357 20.6641 82.4357 21.5281 82.8357 22.2801C83.2517 23.0161 83.8117 23.5921 84.5157 24.0081C85.2357 24.4081 86.0437 24.6081 86.9397 24.6081ZM96.8213 26.0001V13.4001H98.5253V26.0001H96.8213ZM97.6853 10.6161C97.3333 10.6161 97.0373 10.4961 96.7973 10.2561C96.5573 10.0161 96.4373 9.72812 96.4373 9.39212C96.4373 9.05612 96.5573 8.77612 96.7973 8.55212C97.0373 8.31212 97.3333 8.19212 97.6853 8.19212C98.0373 8.19212 98.3333 8.30412 98.5733 8.52812C98.8133 8.75212 98.9333 9.03212 98.9333 9.36812C98.9333 9.72012 98.8133 10.0161 98.5733 10.2561C98.3493 10.4961 98.0533 10.6161 97.6853 10.6161ZM103.267 26.0001V13.4001H104.899V16.8321L104.731 16.2321C105.083 15.2721 105.675 14.5441 106.507 14.0481C107.339 13.5361 108.371 13.2801 109.603 13.2801V14.9361C109.539 14.9361 109.475 14.9361 109.411 14.9361C109.347 14.9201 109.283 14.9121 109.219 14.9121C107.891 14.9121 106.851 15.3201 106.099 16.1361C105.347 16.9361 104.971 18.0801 104.971 19.5681V26.0001H103.267ZM117.947 26.1201C116.635 26.1201 115.483 25.8481 114.491 25.3041C113.499 24.7441 112.723 23.9841 112.163 23.0241C111.603 22.0481 111.323 20.9361 111.323 19.6881C111.323 18.4401 111.587 17.3361 112.115 16.3761C112.659 15.4161 113.395 14.6641 114.323 14.1201C115.267 13.5601 116.323 13.2801 117.491 13.2801C118.675 13.2801 119.723 13.5521 120.635 14.0961C121.563 14.6241 122.291 15.3761 122.819 16.3521C123.347 17.3121 123.611 18.4241 123.611 19.6881C123.611 19.7681 123.603 19.8561 123.587 19.9521C123.587 20.0321 123.587 20.1201 123.587 20.2161H112.619V18.9441H122.675L122.003 19.4481C122.003 18.5361 121.803 17.7281 121.403 17.0241C121.019 16.3041 120.491 15.7441 119.819 15.3441C119.147 14.9441 118.371 14.7441 117.491 14.7441C116.627 14.7441 115.851 14.9441 115.163 15.3441C114.475 15.7441 113.939 16.3041 113.555 17.0241C113.171 17.7441 112.979 18.5681 112.979 19.4961V19.7601C112.979 20.7201 113.187 21.5681 113.603 22.3041C114.035 23.0241 114.627 23.5921 115.379 24.0081C116.147 24.4081 117.019 24.6081 117.995 24.6081C118.763 24.6081 119.475 24.4721 120.131 24.2001C120.803 23.9281 121.379 23.5121 121.859 22.9521L122.819 24.0561C122.259 24.7281 121.555 25.2401 120.707 25.5921C119.875 25.9441 118.955 26.1201 117.947 26.1201ZM132.095 26.1201C130.895 26.1201 129.815 25.8481 128.855 25.3041C127.911 24.7601 127.167 24.0081 126.623 23.0481C126.079 22.0721 125.807 20.9521 125.807 19.6881C125.807 18.4081 126.079 17.2881 126.623 16.3281C127.167 15.3681 127.911 14.6241 128.855 14.0961C129.815 13.5521 130.895 13.2801 132.095 13.2801C133.199 13.2801 134.183 13.5281 135.047 14.0241C135.927 14.5201 136.623 15.2481 137.135 16.2081C137.663 17.1521 137.927 18.3121 137.927 19.6881C137.927 21.0481 137.671 22.2081 137.159 23.1681C136.647 24.1281 135.951 24.8641 135.071 25.3761C134.207 25.8721 133.215 26.1201 132.095 26.1201ZM132.215 24.6081C133.111 24.6081 133.911 24.4081 134.615 24.0081C135.335 23.5921 135.895 23.0161 136.295 22.2801C136.711 21.5281 136.919 20.6641 136.919 19.6881C136.919 18.6961 136.711 17.8321 136.295 17.0961C135.895 16.3601 135.335 15.7921 134.615 15.3921C133.911 14.9761 133.111 14.7681 132.215 14.7681C131.335 14.7681 130.543 14.9761 129.839 15.3921C129.135 15.7921 128.575 16.3601 128.159 17.0961C127.743 17.8321 127.535 18.6961 127.535 19.6881C127.535 20.6641 127.743 21.5281 128.159 22.2801C128.575 23.0161 129.135 23.5921 129.839 24.0081C130.543 24.4081 131.335 24.6081 132.215 24.6081ZM136.967 26.0001V22.2081L137.135 19.6641L136.895 17.1201V8.19212H138.599V26.0001H136.967Z" fill="black"/>
</svg>
