<svg width="1280" height="388" viewBox="0 0 1280 388" fill="none" xmlns="http://www.w3.org/2000/svg">
<path d="M-415.584 34.9141C-367.502 18.654 -256.414 -9.75745 -196.71 6.67771C-122.081 27.2217 -111.004 133.052 -16.7741 163.413C77.4554 193.775 233.307 186.267 251.875 137.207C270.443 88.1471 230.917 56.2162 193.702 56.1261C156.487 56.0359 117.229 92.0718 139.135 142.556C161.042 193.04 246.188 295.07 407.417 300.091C568.646 305.112 573.552 226.845 707.476 284.005C841.4 341.164 933.62 442.186 991.895 347.98C1050.17 253.774 1204.75 247.948 1272.3 267.839C1356.75 292.703 1455.95 341.802 1493.06 215.448" stroke="#667FF5" stroke-width="2"/>
</svg>
