<svg width="57" height="52" viewBox="0 0 57 52" fill="none" xmlns="http://www.w3.org/2000/svg">
<path d="M6.99747 19.9711V13.3794L13.1528 2.1254L17.7298 2.92926V1L20.7285 2.1254L25.4634 1.48232L27.0417 2.92926L29.2513 3.41158L31.4609 3.89389L32.0922 5.82315L33.3197 7.43087L37.6162 5.82315L41.404 10.164L44.8763 13.3794L46.7702 17.881H53.2412L56.5556 20.6141L55.7664 23.8296V28.3312L53.2412 36.3698L51.6629 43.926L49.4533 44.4084L46.4545 42.6399L45.3497 47.6238L36.9848 51H32.0922L31.1452 50.1961L24.3586 49.5531L23.8851 46.8199H21.0442L13.7841 44.4084H11.5745L8.41793 43.926L7.62879 41.9968L3.2096 38.7813L1 34.4405L1.47348 30.4212L2.42045 27.8489L6.99747 19.9711Z" fill="white"/>
<path d="M6.99747 19.9711V13.3794L13.1528 2.1254L17.7298 2.92926V1L20.7285 2.1254M6.99747 19.9711L8.41793 14.8264L11.5745 13.3794L14.8889 14.8264L18.8346 14.5048M6.99747 19.9711L2.42045 27.8489L1.47348 30.4212L1 34.4405L3.2096 38.7813L7.62879 41.9968L8.41793 43.926L11.5745 44.4084H13.7841L21.0442 46.8199M20.7285 2.1254L21.9912 3.89389L17.7298 10.164L18.8346 14.5048M20.7285 2.1254L25.4634 1.48232L27.0417 2.92926L29.2513 3.41158M18.8346 14.5048L21.9912 13.8617L29.2513 3.41158M40.2992 20.6141L42.351 17.881L40.9306 17.2379L39.5101 11.9325H37.6162V10.164H35.4066L33.3197 7.43087M40.2992 20.6141L42.351 21.418L43.298 18.5241L46.7702 17.881M40.2992 20.6141L36.9848 19.9711L28.7778 19.4887M40.2992 20.6141L33.8283 25.2765M46.7702 17.881L44.8763 13.3794L41.404 10.164L37.6162 5.82315L33.3197 7.43087M46.7702 17.881H53.2412L56.5556 20.6141L55.7664 23.8296V28.3312M33.3197 7.43087L32.0922 5.82315L31.4609 3.89389L29.2513 3.41158M55.7664 28.3312L51.6629 32.0289L46.4545 42.6399M55.7664 28.3312L53.2412 36.3698L51.6629 43.926L49.4533 44.4084L46.4545 42.6399M46.4545 42.6399L45.3497 47.6238L36.9848 51M36.9848 51L37.6162 38.7813L41.404 35.0836L41.8775 32.8328L39.9836 28.8135M36.9848 51H32.0922L31.1452 50.1961L24.3586 49.5531L23.8851 46.8199M39.9836 28.8135H34.4596L28.1465 27.045L14.4154 25.9196M39.9836 28.8135L36.9848 25.9196L40.2992 23.8296L40.9306 25.2765L43.7715 27.045L42.8245 31.3859L43.7715 37.1736L45.3497 39.746M14.4154 25.9196L13.7841 28.3312L12.5215 31.3859L10.9432 35.0836L14.8889 41.0322H17.2563L21.0442 46.8199M14.4154 25.9196L13.3106 21.9003L17.7298 17.881L21.5177 19.4887M21.0442 46.8199H23.8851M23.8851 46.8199L24.2008 39.2637L25.3056 38.7813V34.119L27.3573 38.7813M28.7778 19.4887V16.5949M28.7778 19.4887L24.9899 22.7042L27.1995 24.1511H28.7778L30.1982 25.9196" stroke="black" stroke-width="0.5" stroke-linecap="round" stroke-linejoin="round"/>
</svg>
