<svg width="46" height="46" viewBox="0 0 46 46" fill="none" xmlns="http://www.w3.org/2000/svg">
<g clip-path="url(#clip0_44_181)">
<path d="M23.0099 0.30249C18.5208 0.30249 14.1325 1.63367 10.3999 4.12769C6.66733 6.62171 3.75815 10.1665 2.04024 14.314C0.322334 18.4614 -0.127149 23.025 0.748634 27.4279C1.62442 31.8308 3.78613 35.875 6.96042 39.0493C10.1347 42.2236 14.179 44.3853 18.5818 45.2611C22.9847 46.1369 27.5484 45.6874 31.6958 43.9695C35.8432 42.2516 39.388 39.3424 41.882 35.6098C44.3761 31.8773 45.7072 27.489 45.7072 22.9999C45.7075 20.0191 45.1206 17.0675 43.98 14.3137C42.8395 11.5598 41.1676 9.05754 39.0599 6.94984C36.9522 4.84215 34.45 3.17028 31.6961 2.02972C28.9422 0.889159 25.9906 0.302243 23.0099 0.30249ZM30.2265 34.6946C30.1416 34.9064 30.0123 35.0977 29.8474 35.2555C29.6825 35.4133 29.4858 35.534 29.2704 35.6095C29.055 35.6851 28.826 35.7137 28.5987 35.6935C28.3713 35.6733 28.1509 35.6048 27.9523 35.4924L21.7907 30.7047L17.8361 34.3531C17.7443 34.4209 17.637 34.4645 17.5239 34.48C17.4109 34.4954 17.2958 34.4822 17.1892 34.4415L17.9473 27.6584L17.9715 27.6777L17.987 27.5438C17.987 27.5438 29.0747 17.4491 29.5264 17.019C29.9837 16.59 29.8328 16.497 29.8328 16.497C29.8588 15.9737 29.0122 16.497 29.0122 16.497L14.3213 25.9482L8.20327 23.8646C8.20327 23.8646 7.2636 23.5276 7.17508 22.7865C7.08202 22.0511 8.23389 21.6516 8.23389 21.6516L32.5587 11.9882C32.5587 11.9882 34.5583 11.0973 34.5583 12.5727L30.2265 34.6946Z" fill="white"/>
</g>
<defs>
<clipPath id="clip0_44_181">
<rect width="46" height="46" fill="white"/>
</clipPath>
</defs>
</svg>
