<svg width="46" height="46" viewBox="0 0 46 46" fill="none" xmlns="http://www.w3.org/2000/svg">
<g clip-path="url(#clip0_44_184)">
<path fill-rule="evenodd" clip-rule="evenodd" d="M45.4789 22.9999C45.4789 35.4147 35.4148 45.4788 23 45.4788C10.5853 45.4788 0.521118 35.4147 0.521118 22.9999C0.521118 10.5851 10.5853 0.520996 23 0.520996C35.4148 0.520996 45.4789 10.5851 45.4789 22.9999ZM36.4863 15.8333C36.4931 15.9738 36.4683 16.1312 36.4166 16.3009C36.1035 17.8199 33.3444 21.8618 32.5096 23.0847C32.3555 23.3105 32.267 23.4402 32.2715 23.4402C32.1097 23.7167 32.0018 23.9145 31.9917 24.1224C31.9816 24.3202 32.0614 24.527 32.2715 24.8204C32.5851 25.27 33.2673 26.0972 33.9586 26.9323C35.2062 28.4406 36.2065 30.0231 36.4245 30.6705C36.4706 30.847 36.4908 31.0054 36.4875 31.1471C36.4717 31.7034 36.0795 31.99 35.3961 31.99H32.4536C31.6785 31.99 31.2717 31.4567 30.4425 30.3696C30.0789 29.8928 29.6341 29.3096 29.0413 28.6182C27.3554 26.6513 26.4821 26.3703 26.0539 26.3703C25.4537 26.3703 25.248 26.5198 25.2469 27.4201V30.7604C25.2469 31.5101 25.0536 31.99 23.1676 31.99C20.0542 31.99 16.5374 29.8826 13.8681 26.2298C10.1871 21.1923 9.51276 16.8111 9.51276 16.0008C9.51276 15.5512 9.6555 15.1308 10.5131 15.1308H13.4837C14.2266 15.1308 14.5121 15.4613 14.7976 16.3312C16.1159 20.7506 18.0851 24.1224 19.0854 24.1224C19.4563 24.1224 19.6283 23.9426 19.6283 22.9535V18.8814C19.5576 17.5857 19.1464 17.0207 18.8417 16.6021C18.6525 16.3421 18.5043 16.1385 18.5043 15.8513C18.5043 15.4905 18.7426 15.1308 19.2 15.1308H24.4253C25.0536 15.1308 25.248 15.4905 25.248 16.2705V22.0982C25.248 22.7579 25.7504 22.9985 25.9493 22.9985C25.9582 22.9985 25.967 22.9985 25.9758 22.9985C26.337 22.9989 26.685 22.9993 27.3543 22.296C29.4684 19.8065 31.3027 16.0311 31.3027 16.0311C31.5028 15.5804 31.8456 15.1308 32.5885 15.1308H35.531C36.1896 15.1308 36.4695 15.4264 36.4863 15.8333Z" fill="white"/>
</g>
<defs>
<clipPath id="clip0_44_184">
<rect width="46" height="46" fill="white"/>
</clipPath>
</defs>
</svg>
