<svg width="46" height="47" viewBox="0 0 46 47" fill="none" xmlns="http://www.w3.org/2000/svg">
<g clip-path="url(#clip0_44_190)">
<path d="M23.5145 11.1135C17.1905 11.1135 12.0472 16.2562 12.0448 22.5775C12.0439 24.7439 12.6501 26.8536 13.7977 28.679L14.0704 29.1127L12.9121 33.3434L17.2514 32.2051L17.67 32.4536C19.4303 33.4981 21.4481 34.0509 23.5053 34.0517H23.5099C29.8292 34.0517 34.9723 28.9084 34.9748 22.5866C34.976 19.5233 33.7846 16.6427 31.6201 14.4756C29.4555 12.3086 26.5768 11.1144 23.5145 11.1135ZM30.2582 27.5068C29.9711 28.3118 28.594 29.0467 27.9318 29.1456C27.3379 29.2344 26.5866 29.2714 25.761 29.009C25.2604 28.8502 24.6184 28.6381 23.7961 28.283C20.3386 26.79 18.0805 23.3089 17.9082 23.0787C17.7359 22.8488 16.5008 21.2099 16.5008 19.5133C16.5008 17.817 17.3913 16.983 17.7072 16.6379C18.023 16.293 18.3965 16.2067 18.6262 16.2067C18.856 16.2067 19.086 16.2088 19.2868 16.2188C19.4983 16.2296 19.7825 16.1385 20.0624 16.8105C20.3495 17.5007 21.0388 19.1972 21.125 19.3697C21.2112 19.5422 21.2686 19.7435 21.1538 19.9735C21.0389 20.2034 20.9815 20.3473 20.8091 20.5485C20.6368 20.7498 20.4471 20.9978 20.2921 21.1523C20.1196 21.3242 19.9399 21.5107 20.1409 21.8556C20.342 22.2008 21.0337 23.3294 22.0584 24.2434C23.3748 25.4176 24.4854 25.7815 24.8301 25.9541C25.1747 26.1267 25.3758 26.0977 25.5768 25.8678C25.7779 25.6378 26.4385 24.8614 26.6682 24.5163C26.898 24.1714 27.1278 24.2289 27.4437 24.3439C27.7595 24.459 29.4542 25.2927 29.7988 25.4651C30.1435 25.6377 30.3732 25.724 30.4593 25.8678C30.5455 26.0115 30.5455 26.7016 30.2582 27.5068Z" fill="white"/>
<path d="M23.0047 0.0973511C10.3133 0.0973511 0.0241699 10.3846 0.0241699 23.076C0.0241699 35.7674 10.3133 46.0565 23.0047 46.0565C35.6951 46.0565 45.9842 35.7674 45.9842 23.076C45.9842 10.3846 35.6951 0.0973511 23.0047 0.0973511ZM23.509 36.3771C23.5093 36.3771 23.5085 36.3771 23.509 36.3771H23.5033C21.1947 36.3763 18.9261 35.7971 16.9115 34.6982L9.59908 36.6163L11.556 29.4684C10.3489 27.3765 9.71378 25.0036 9.7148 22.5724C9.71779 14.9671 15.9059 8.77946 23.5089 8.77946C27.1988 8.78095 30.6623 10.2175 33.2665 12.8248C35.8709 15.432 37.3044 18.8976 37.303 22.5834C37.2997 30.1889 31.1113 36.3771 23.509 36.3771Z" fill="white"/>
</g>
<defs>
<clipPath id="clip0_44_190">
<rect width="46" height="47" fill="white"/>
</clipPath>
</defs>
</svg>
